<mxfile host="app.diagrams.net" agent="Mozilla/5.0 (Macintosh; Intel Mac OS X 10_15_7) AppleWebKit/537.36 (KHTML, like Gecko) Chrome/140.0.0.0 Safari/537.36" scale="1" border="0" version="28.2.4">
  <diagram id="JIO4U5yVURzNJD8ckPtT" name="Page-1">
    <mxGraphModel dx="976" dy="565" grid="1" gridSize="10" guides="1" tooltips="1" connect="1" arrows="1" fold="1" page="1" pageScale="1" pageWidth="850" pageHeight="1100" math="0" shadow="0">
      <root>
        <mxCell id="0" />
        <mxCell id="1" parent="0" />
        <mxCell id="95719swV9uMr1foC4E7I-3" style="edgeStyle=orthogonalEdgeStyle;rounded=0;orthogonalLoop=1;jettySize=auto;html=1;exitX=1;exitY=0.5;exitDx=0;exitDy=0;entryX=0;entryY=0.5;entryDx=0;entryDy=0;" parent="1" source="At9daDqTqGgUnNfYn9DA-1" target="At9daDqTqGgUnNfYn9DA-3" edge="1">
          <mxGeometry relative="1" as="geometry" />
        </mxCell>
        <mxCell id="At9daDqTqGgUnNfYn9DA-1" value="Stream user-ad interations" style="rounded=1;whiteSpace=wrap;html=1;" parent="1" vertex="1">
          <mxGeometry x="80" y="80" width="80" height="40" as="geometry" />
        </mxCell>
        <mxCell id="At9daDqTqGgUnNfYn9DA-2" value="" style="swimlane;startSize=0;" parent="1" vertex="1">
          <mxGeometry x="200" y="40" width="480" height="200" as="geometry" />
        </mxCell>
        <mxCell id="At9daDqTqGgUnNfYn9DA-28" style="edgeStyle=orthogonalEdgeStyle;rounded=0;orthogonalLoop=1;jettySize=auto;html=1;exitX=1;exitY=0.5;exitDx=0;exitDy=0;" parent="At9daDqTqGgUnNfYn9DA-2" source="At9daDqTqGgUnNfYn9DA-3" target="At9daDqTqGgUnNfYn9DA-5" edge="1">
          <mxGeometry relative="1" as="geometry" />
        </mxCell>
        <mxCell id="95719swV9uMr1foC4E7I-11" style="edgeStyle=orthogonalEdgeStyle;rounded=0;orthogonalLoop=1;jettySize=auto;html=1;exitX=0.25;exitY=1;exitDx=0;exitDy=0;entryX=0.25;entryY=0;entryDx=0;entryDy=0;" parent="At9daDqTqGgUnNfYn9DA-2" source="At9daDqTqGgUnNfYn9DA-3" target="At9daDqTqGgUnNfYn9DA-6" edge="1">
          <mxGeometry relative="1" as="geometry">
            <Array as="points">
              <mxPoint x="60" y="90" />
              <mxPoint x="180" y="90" />
            </Array>
          </mxGeometry>
        </mxCell>
        <mxCell id="At9daDqTqGgUnNfYn9DA-3" value="New data" style="rounded=1;whiteSpace=wrap;html=1;" parent="At9daDqTqGgUnNfYn9DA-2" vertex="1">
          <mxGeometry x="40" y="40" width="80" height="40" as="geometry" />
        </mxCell>
        <mxCell id="At9daDqTqGgUnNfYn9DA-29" style="edgeStyle=orthogonalEdgeStyle;rounded=0;orthogonalLoop=1;jettySize=auto;html=1;exitX=1;exitY=0.5;exitDx=0;exitDy=0;entryX=0;entryY=0.5;entryDx=0;entryDy=0;" parent="At9daDqTqGgUnNfYn9DA-2" source="At9daDqTqGgUnNfYn9DA-4" target="At9daDqTqGgUnNfYn9DA-6" edge="1">
          <mxGeometry relative="1" as="geometry" />
        </mxCell>
        <mxCell id="95719swV9uMr1foC4E7I-10" style="edgeStyle=orthogonalEdgeStyle;rounded=0;orthogonalLoop=1;jettySize=auto;html=1;exitX=0.75;exitY=0;exitDx=0;exitDy=0;entryX=0.75;entryY=1;entryDx=0;entryDy=0;" parent="At9daDqTqGgUnNfYn9DA-2" source="At9daDqTqGgUnNfYn9DA-4" target="At9daDqTqGgUnNfYn9DA-5" edge="1">
          <mxGeometry relative="1" as="geometry">
            <Array as="points">
              <mxPoint x="100" y="100" />
              <mxPoint x="220" y="100" />
            </Array>
          </mxGeometry>
        </mxCell>
        <mxCell id="At9daDqTqGgUnNfYn9DA-4" value="Data lake" style="rounded=1;whiteSpace=wrap;html=1;" parent="At9daDqTqGgUnNfYn9DA-2" vertex="1">
          <mxGeometry x="40" y="120" width="80" height="40" as="geometry" />
        </mxCell>
        <mxCell id="At9daDqTqGgUnNfYn9DA-31" style="edgeStyle=orthogonalEdgeStyle;rounded=0;orthogonalLoop=1;jettySize=auto;html=1;exitX=1;exitY=0.5;exitDx=0;exitDy=0;entryX=0;entryY=0.5;entryDx=0;entryDy=0;" parent="At9daDqTqGgUnNfYn9DA-2" source="At9daDqTqGgUnNfYn9DA-5" target="At9daDqTqGgUnNfYn9DA-7" edge="1">
          <mxGeometry relative="1" as="geometry" />
        </mxCell>
        <mxCell id="At9daDqTqGgUnNfYn9DA-5" value="Batch feature computation" style="rounded=1;whiteSpace=wrap;html=1;" parent="At9daDqTqGgUnNfYn9DA-2" vertex="1">
          <mxGeometry x="200" y="40" width="80" height="40" as="geometry" />
        </mxCell>
        <mxCell id="At9daDqTqGgUnNfYn9DA-30" style="edgeStyle=orthogonalEdgeStyle;rounded=0;orthogonalLoop=1;jettySize=auto;html=1;exitX=1;exitY=0.5;exitDx=0;exitDy=0;" parent="At9daDqTqGgUnNfYn9DA-2" source="At9daDqTqGgUnNfYn9DA-6" target="At9daDqTqGgUnNfYn9DA-8" edge="1">
          <mxGeometry relative="1" as="geometry" />
        </mxCell>
        <mxCell id="At9daDqTqGgUnNfYn9DA-6" value="Online feature computation" style="rounded=1;whiteSpace=wrap;html=1;" parent="At9daDqTqGgUnNfYn9DA-2" vertex="1">
          <mxGeometry x="200" y="120" width="80" height="40" as="geometry" />
        </mxCell>
        <mxCell id="At9daDqTqGgUnNfYn9DA-32" style="edgeStyle=orthogonalEdgeStyle;rounded=0;orthogonalLoop=1;jettySize=auto;html=1;exitX=0.5;exitY=1;exitDx=0;exitDy=0;entryX=0.5;entryY=0;entryDx=0;entryDy=0;" parent="At9daDqTqGgUnNfYn9DA-2" source="At9daDqTqGgUnNfYn9DA-7" target="At9daDqTqGgUnNfYn9DA-8" edge="1">
          <mxGeometry relative="1" as="geometry" />
        </mxCell>
        <mxCell id="At9daDqTqGgUnNfYn9DA-7" value="Feature store" style="rounded=1;whiteSpace=wrap;html=1;" parent="At9daDqTqGgUnNfYn9DA-2" vertex="1">
          <mxGeometry x="360" y="40" width="80" height="40" as="geometry" />
        </mxCell>
        <mxCell id="At9daDqTqGgUnNfYn9DA-8" value="Dataset generation" style="rounded=1;whiteSpace=wrap;html=1;" parent="At9daDqTqGgUnNfYn9DA-2" vertex="1">
          <mxGeometry x="360" y="120" width="80" height="40" as="geometry" />
        </mxCell>
        <mxCell id="At9daDqTqGgUnNfYn9DA-38" value="Data preparation pipeline" style="text;html=1;align=center;verticalAlign=middle;whiteSpace=wrap;rounded=0;" parent="At9daDqTqGgUnNfYn9DA-2" vertex="1">
          <mxGeometry width="160" height="40" as="geometry" />
        </mxCell>
        <mxCell id="At9daDqTqGgUnNfYn9DA-9" value="" style="swimlane;startSize=0;" parent="1" vertex="1">
          <mxGeometry x="40" y="280" width="640" height="120" as="geometry" />
        </mxCell>
        <mxCell id="At9daDqTqGgUnNfYn9DA-40" style="edgeStyle=orthogonalEdgeStyle;rounded=0;orthogonalLoop=1;jettySize=auto;html=1;exitX=0;exitY=0.5;exitDx=0;exitDy=0;entryX=1;entryY=0.5;entryDx=0;entryDy=0;" parent="At9daDqTqGgUnNfYn9DA-9" source="At9daDqTqGgUnNfYn9DA-10" target="At9daDqTqGgUnNfYn9DA-11" edge="1">
          <mxGeometry relative="1" as="geometry" />
        </mxCell>
        <mxCell id="At9daDqTqGgUnNfYn9DA-10" value="Training dataset" style="rounded=1;whiteSpace=wrap;html=1;" parent="At9daDqTqGgUnNfYn9DA-9" vertex="1">
          <mxGeometry x="520" y="40" width="80" height="40" as="geometry" />
        </mxCell>
        <mxCell id="At9daDqTqGgUnNfYn9DA-41" style="edgeStyle=orthogonalEdgeStyle;rounded=0;orthogonalLoop=1;jettySize=auto;html=1;exitX=0;exitY=0.5;exitDx=0;exitDy=0;entryX=1;entryY=0.5;entryDx=0;entryDy=0;" parent="At9daDqTqGgUnNfYn9DA-9" source="At9daDqTqGgUnNfYn9DA-11" target="At9daDqTqGgUnNfYn9DA-12" edge="1">
          <mxGeometry relative="1" as="geometry" />
        </mxCell>
        <mxCell id="At9daDqTqGgUnNfYn9DA-11" value="Model training" style="rounded=1;whiteSpace=wrap;html=1;" parent="At9daDqTqGgUnNfYn9DA-9" vertex="1">
          <mxGeometry x="360" y="40" width="80" height="40" as="geometry" />
        </mxCell>
        <mxCell id="At9daDqTqGgUnNfYn9DA-43" style="edgeStyle=orthogonalEdgeStyle;rounded=0;orthogonalLoop=1;jettySize=auto;html=1;exitX=0;exitY=0.5;exitDx=0;exitDy=0;entryX=1;entryY=0.5;entryDx=0;entryDy=0;" parent="At9daDqTqGgUnNfYn9DA-9" source="At9daDqTqGgUnNfYn9DA-12" target="At9daDqTqGgUnNfYn9DA-13" edge="1">
          <mxGeometry relative="1" as="geometry" />
        </mxCell>
        <mxCell id="At9daDqTqGgUnNfYn9DA-12" value="Model validation and deployment" style="rounded=1;whiteSpace=wrap;html=1;" parent="At9daDqTqGgUnNfYn9DA-9" vertex="1">
          <mxGeometry x="200" y="40" width="80" height="40" as="geometry" />
        </mxCell>
        <mxCell id="At9daDqTqGgUnNfYn9DA-13" value="Model registry" style="rounded=1;whiteSpace=wrap;html=1;" parent="At9daDqTqGgUnNfYn9DA-9" vertex="1">
          <mxGeometry x="40" y="40" width="80" height="40" as="geometry" />
        </mxCell>
        <mxCell id="At9daDqTqGgUnNfYn9DA-26" value="Continual learning pipeline" style="text;html=1;align=center;verticalAlign=middle;whiteSpace=wrap;rounded=0;" parent="At9daDqTqGgUnNfYn9DA-9" vertex="1">
          <mxGeometry width="160" height="40" as="geometry" />
        </mxCell>
        <mxCell id="At9daDqTqGgUnNfYn9DA-18" value="" style="swimlane;startSize=0;" parent="1" vertex="1">
          <mxGeometry x="200" y="520" width="480" height="200" as="geometry" />
        </mxCell>
        <mxCell id="At9daDqTqGgUnNfYn9DA-48" style="edgeStyle=orthogonalEdgeStyle;rounded=0;orthogonalLoop=1;jettySize=auto;html=1;exitX=1;exitY=0.5;exitDx=0;exitDy=0;entryX=0;entryY=0.5;entryDx=0;entryDy=0;" parent="At9daDqTqGgUnNfYn9DA-18" source="At9daDqTqGgUnNfYn9DA-19" target="At9daDqTqGgUnNfYn9DA-22" edge="1">
          <mxGeometry relative="1" as="geometry" />
        </mxCell>
        <mxCell id="At9daDqTqGgUnNfYn9DA-19" value="Candidate generation service" style="rounded=1;whiteSpace=wrap;html=1;" parent="At9daDqTqGgUnNfYn9DA-18" vertex="1">
          <mxGeometry x="40" y="40" width="80" height="40" as="geometry" />
        </mxCell>
        <mxCell id="At9daDqTqGgUnNfYn9DA-20" value="Re-ranking service" style="rounded=1;whiteSpace=wrap;html=1;" parent="At9daDqTqGgUnNfYn9DA-18" vertex="1">
          <mxGeometry x="360" y="40" width="80" height="40" as="geometry" />
        </mxCell>
        <mxCell id="At9daDqTqGgUnNfYn9DA-50" style="edgeStyle=orthogonalEdgeStyle;rounded=0;orthogonalLoop=1;jettySize=auto;html=1;exitX=0.5;exitY=0;exitDx=0;exitDy=0;entryX=0.5;entryY=1;entryDx=0;entryDy=0;" parent="At9daDqTqGgUnNfYn9DA-18" source="At9daDqTqGgUnNfYn9DA-21" target="At9daDqTqGgUnNfYn9DA-19" edge="1">
          <mxGeometry relative="1" as="geometry" />
        </mxCell>
        <mxCell id="At9daDqTqGgUnNfYn9DA-21" value="Pool of Ads" style="rounded=1;whiteSpace=wrap;html=1;" parent="At9daDqTqGgUnNfYn9DA-18" vertex="1">
          <mxGeometry x="40" y="120" width="80" height="40" as="geometry" />
        </mxCell>
        <mxCell id="At9daDqTqGgUnNfYn9DA-49" style="edgeStyle=orthogonalEdgeStyle;rounded=0;orthogonalLoop=1;jettySize=auto;html=1;exitX=1;exitY=0.5;exitDx=0;exitDy=0;entryX=0;entryY=0.5;entryDx=0;entryDy=0;" parent="At9daDqTqGgUnNfYn9DA-18" source="At9daDqTqGgUnNfYn9DA-22" target="At9daDqTqGgUnNfYn9DA-20" edge="1">
          <mxGeometry relative="1" as="geometry" />
        </mxCell>
        <mxCell id="At9daDqTqGgUnNfYn9DA-22" value="Ranking service" style="rounded=1;whiteSpace=wrap;html=1;" parent="At9daDqTqGgUnNfYn9DA-18" vertex="1">
          <mxGeometry x="200" y="40" width="80" height="40" as="geometry" />
        </mxCell>
        <mxCell id="At9daDqTqGgUnNfYn9DA-54" value="Prediction pipeline" style="text;html=1;align=center;verticalAlign=middle;whiteSpace=wrap;rounded=0;" parent="At9daDqTqGgUnNfYn9DA-18" vertex="1">
          <mxGeometry width="120" height="40" as="geometry" />
        </mxCell>
        <mxCell id="95719swV9uMr1foC4E7I-12" style="edgeStyle=orthogonalEdgeStyle;rounded=0;orthogonalLoop=1;jettySize=auto;html=1;exitX=1;exitY=0.5;exitDx=0;exitDy=0;entryX=0.5;entryY=0;entryDx=0;entryDy=0;" parent="1" source="At9daDqTqGgUnNfYn9DA-25" target="At9daDqTqGgUnNfYn9DA-22" edge="1">
          <mxGeometry relative="1" as="geometry" />
        </mxCell>
        <mxCell id="At9daDqTqGgUnNfYn9DA-25" value="&amp;nbsp;ML model" style="rounded=1;whiteSpace=wrap;html=1;" parent="1" vertex="1">
          <mxGeometry x="240" y="440" width="80" height="40" as="geometry" />
        </mxCell>
        <mxCell id="At9daDqTqGgUnNfYn9DA-39" style="edgeStyle=orthogonalEdgeStyle;rounded=0;orthogonalLoop=1;jettySize=auto;html=1;exitX=0.5;exitY=1;exitDx=0;exitDy=0;entryX=0.5;entryY=0;entryDx=0;entryDy=0;" parent="1" source="At9daDqTqGgUnNfYn9DA-8" target="At9daDqTqGgUnNfYn9DA-10" edge="1">
          <mxGeometry relative="1" as="geometry" />
        </mxCell>
        <mxCell id="At9daDqTqGgUnNfYn9DA-44" style="edgeStyle=orthogonalEdgeStyle;rounded=0;orthogonalLoop=1;jettySize=auto;html=1;exitX=0.5;exitY=1;exitDx=0;exitDy=0;" parent="1" source="At9daDqTqGgUnNfYn9DA-12" target="At9daDqTqGgUnNfYn9DA-25" edge="1">
          <mxGeometry relative="1" as="geometry" />
        </mxCell>
        <mxCell id="95719swV9uMr1foC4E7I-1" style="edgeStyle=orthogonalEdgeStyle;rounded=0;orthogonalLoop=1;jettySize=auto;html=1;exitX=1;exitY=0.5;exitDx=0;exitDy=0;entryX=0;entryY=0.5;entryDx=0;entryDy=0;" parent="1" source="At9daDqTqGgUnNfYn9DA-46" target="At9daDqTqGgUnNfYn9DA-19" edge="1">
          <mxGeometry relative="1" as="geometry" />
        </mxCell>
        <mxCell id="At9daDqTqGgUnNfYn9DA-46" value="User" style="rounded=1;whiteSpace=wrap;html=1;" parent="1" vertex="1">
          <mxGeometry x="80" y="560" width="80" height="40" as="geometry" />
        </mxCell>
        <mxCell id="At9daDqTqGgUnNfYn9DA-15" value="Ranked Ads" style="rounded=1;whiteSpace=wrap;html=1;" parent="1" vertex="1">
          <mxGeometry x="720" y="560" width="80" height="40" as="geometry" />
        </mxCell>
        <mxCell id="95719swV9uMr1foC4E7I-2" style="edgeStyle=orthogonalEdgeStyle;rounded=0;orthogonalLoop=1;jettySize=auto;html=1;exitX=1;exitY=0.5;exitDx=0;exitDy=0;entryX=0;entryY=0.5;entryDx=0;entryDy=0;" parent="1" source="At9daDqTqGgUnNfYn9DA-20" target="At9daDqTqGgUnNfYn9DA-15" edge="1">
          <mxGeometry relative="1" as="geometry" />
        </mxCell>
      </root>
    </mxGraphModel>
  </diagram>
</mxfile>
